
<svg width="24" height="24" viewBox="0 0 24 24" fill="none" xmlns="http://www.w3.org/2000/svg">
<g clip-path="url(#clip0_202_18)">
<rect width="24" height="24" fill="transparent"/>
<path d="M20.8561 20.8497C21.4747 20.2295 21.8571 19.3737 21.8571 18.4286C21.8571 16.535 20.3222 15 18.4286 15C16.535 15 15 16.535 15 18.4286C15 20.3222 16.535 21.8571 18.4286 21.8571C19.377 21.8571 20.2354 21.472 20.8561 20.8497ZM20.8561 20.8497L23 23" stroke="currentColor" stroke-width="1.5" stroke-linecap="round" stroke-linejoin="round"/>
<path fill-rule="evenodd" clip-rule="evenodd" d="M1.59153 12.035C1.59153 6.26724 6.26725 1.59152 12.035 1.59152C17.8028 1.59152 22.4786 6.26724 22.4786 12.035C22.4786 12.6865 22.4189 13.3241 22.3048 13.9425C22.7765 14.3505 23.1832 14.8316 23.5072 15.3682C23.8141 14.3103 23.9786 13.1919 23.9786 12.035C23.9786 5.43882 18.6313 0.0915222 12.035 0.0915222C5.43882 0.0915222 0.091526 5.43882 0.091526 12.035C0.091526 18.6313 5.43882 23.9785 12.035 23.9785C13.1919 23.9785 14.3103 23.8141 15.3682 23.5072C14.8316 23.1832 14.3505 22.7765 13.9425 22.3048C13.3241 22.4189 12.6865 22.4785 12.035 22.4785C6.26725 22.4785 1.59153 17.8028 1.59153 12.035Z" fill="currentColor"/>
<circle cx="15.5" cy="7.5" r="2.5" fill="currentColor"/>
<circle cx="9" cy="6" r="2" fill="currentColor"/>
<path d="M7 10.5C7 11.3284 6.32843 12 5.5 12C4.67157 12 4 11.3284 4 10.5C4 9.67157 4.67157 9 5.5 9C6.32843 9 7 9.67157 7 10.5Z" fill="currentColor"/>
<circle cx="6" cy="16" r="1" fill="currentColor"/>
</g>
<defs>
<clipPath id="clip0_202_18">
<rect width="24" height="24" fill="transparent"/>
</clipPath>
</defs>
</svg>
